<?xml version="1.0" encoding="utf-8"?>
<!-- Generator: Adobe Illustrator 27.0.0, SVG Export Plug-In . SVG Version: 6.00 Build 0)  -->
<svg version="1.1" id="Ebene_1" xmlns="http://www.w3.org/2000/svg" xmlns:xlink="http://www.w3.org/1999/xlink" x="0px" y="0px"
	 viewBox="0 0 221.1 221.1" style="enable-background:new 0 0 221.1 221.1;" xml:space="preserve">
<style type="text/css">
	.st0{fill:#595959;}
	.st1{opacity:0.748;}
	.st2{fill:#FFFFFF;stroke:#FFFFFF;stroke-miterlimit:10;}
</style>
<circle class="st0" cx="109.7" cy="112" r="108.2"/>
<g class="st1">
	<path class="st2" d="M40.6,177.5c0.7-1,1.9-1.5,3.2-1.4c16.7,0,33.3,0,50,0h1.7c1.3-4.3,4.7-5.7,8.8-6.3c-0.2-2.4-0.4-4.7-0.7-7
		c-1.2-9.6-2.7-19.2-3.8-28.8c-0.9-7.7-1.5-15.6,0.7-23.2c2.6-8.7,1.7-17.1-0.3-25.7c-0.1-0.6-0.5-1.1-1.2-1.2
		c-1.1-0.2-1.8-1.2-1.6-2.3c0,0,0-0.1,0-0.1c0.1-1.1,1.1-1.9,2.2-1.9c0.7,0,1.4,0,2,0c1.6,0,2.3,0.8,2.4,2.5
		c0.1,0.9,0.2,1.7,0.5,2.5c2.1,6.9,1.9,13.9,1.7,21c0,1.9-1,3.9-1.5,5.8c-1.3,5.2-1.8,10.6-1.2,16c0.6,6.8,1.6,13.6,2.4,20.5
		c0.4,2.9,0.8,5.8,1.2,8.7c0.1,0.9,0.3,1.3,1.3,1.2c1.8-0.1,3.6,0,5.5,0c0.2-3,0.3-5.8,0.5-8.7c0.4-8.2,0.8-16.4,1.2-24.6
		c0.1-3,0.5-3.4,3.5-3.6c4.7-0.2,9.2-2.3,12.3-5.8c5.1-5.9,10.1-12,15.1-18c0.1-0.1,0.1-0.2,0.2-0.3l-5.6-5.6l-9.4,8.4
		c-2.4,2.2-4.9,4.4-7.4,6.5c-0.6,0.5-1.4,0.8-2.2,0.9c-3,0.1-6.1,0.1-9.2,0c-1.2,0.2-2.3-0.7-2.5-1.9c0-0.1,0-0.1,0-0.2
		c0-1.3,0.9-2.2,2.5-2.2c2.2,0,4.4-0.1,6.6,0c1.4,0.1,2.8-0.4,3.8-1.4c1.1-0.9,1.8-2.3,1.7-3.7c-0.1-4.7,0.6-9.5,2-14
		c0.1-0.4,0.2-0.9,0.2-1.3c0-1.8,0.7-2.6,2.5-2.6c5.3,0,10.6,0,15.8,0c1.2,0.1,2.3-0.3,3.1-1.2c0.5-0.6,1.2-1,1.7-1.6
		c0.5-0.7,0.9-1.4,1.2-2.1h-2.2c-26.4,0-52.8-0.1-79.2,0.1c-4.4,0.1-8.6-1.8-11.3-5.2c-0.9-0.8-0.9-2.1-0.1-3c0,0,0,0,0.1-0.1
		c0.8-0.9,2.2-0.9,3.1-0.1c0.1,0.1,0.1,0.1,0.2,0.2c2.5,3.3,6,3.9,10,3.8c11.3-0.2,22.6-0.1,33.9-0.1h1.6c-0.6-1.5-1.2-2.7-1.7-4
		c-1.3-2.9-1.8-6.1-1.6-9.3c0.1-2.3,1.2-4.5,2.9-6c1.1-0.9,1.8-2.4,1.7-3.8c0.1-3.7,3.1-6.7,6.9-6.6c3.7,0.1,6.7,3.1,6.6,6.8
		c0,1.3,0.5,2.6,1.6,3.5c3.1,2.9,3.6,6.7,2.7,10.6c-0.7,3-1.8,5.9-2.7,8.8h28.1c0.2-1,0.3-1.9,0.5-2.9c0.1-2.8,2.5-4.9,5.3-4.8
		c0.5,0,0.9,0.1,1.4,0.3c2.1,0.5,3.8,2,4.4,4.1c0.2,0.6,0.4,1.1,0.5,1.7c0.1,1.1,0.8,2,1.9,2.3c1.5,0.6,2.5,2.2,2.4,3.8
		c0,1.5,0,3.1,0,4.6c0,2.5-1.6,4.4-4.1,4.4c-1.4,0.1-2.6,0.8-3.3,2c-2.7,3.4-5.4,6.9-8.1,10.3c-5.7,6.9-11.4,13.9-17.1,20.8
		c-3.9,4.8-9.6,7.8-15.8,8.3c-0.8,16.9-1.6,33.7-2.4,50.8h1.9c19.3,0,38.6,0,57.9,0c0.9,0,1.7,0.3,2.5,0.8c1.1,0.9,0.7,2.2-0.8,3.5
		H40.6V177.5z M108.8,59.2c0,2.8,1.3,6,2.9,9.1c1.6,3,6.6,3,8.1-0.1c1.2-2.3,2-4.7,2.6-7.3c1-4.2-0.2-6.6-3.6-8.3
		c-3.5-1.7-7.7-0.3-9.4,3.2C109,56.9,108.7,58,108.8,59.2z M158.7,81.8c-2.4-4.2-2.1-6.6,1.2-10.2c0.2-0.2,0.4-0.5,0.3-0.7
		c-0.2-1-0.5-2-0.9-3c-0.4-0.5-1-0.8-1.7-0.9c-0.2,0-0.7,0.8-0.8,1.3c-0.5,2.8-0.8,5.7-1.3,8.5c-0.2,0.9-0.6,1.8-1.2,2.4
		c-2.4,2.3-4.9,4.5-7.4,6.7c-0.8,0.7-1.6,1.4-2.1,1.9l5.1,5.1L158.7,81.8z M108,162.2c0.2,2.9,0.5,5.6,0.7,8.4
		c0.1,2.1-0.3,2.6-2.4,3.1c-1.3,0.3-2.7,0.6-3.9,1c-0.7,0.3-1.3,0.6-1.9,1l0.1,0.3h13v-13.8L108,162.2z M129.7,95.6l12.9-11.5h-11
		C130.3,87.8,129.7,91.7,129.7,95.6z M164,79.6v-4.7c-1.8,0.2-2.5,0.9-2.4,2.5C161.6,78.8,162.4,79.5,164,79.6z M113.4,47.6h4.8
		c-0.3-1.8-1.1-2.7-2.5-2.6C114.3,45.1,113.5,45.9,113.4,47.6L113.4,47.6z"/>
	<path class="st2" d="M70,84c-3.9,0-7.8,0.1-11.7,0c-3.4-0.1-6.2-2.6-6.6-5.9c-0.4-3.2,1.5-6.2,4.5-7.2c0.6-0.2,1.2-0.3,1.9-0.4
		c1.2-0.1,2.3,0.7,2.5,2c0,0,0,0,0,0c0.1,1.1-0.7,2-2,2.4c-0.9,0.2-1.6,0.6-2.2,1.3c-1.1,1.5,0.2,3.5,2.3,3.5c2.4,0.1,4.7,0,7.1,0
		c5.4,0,10.7,0,16.1,0c1.7,0,2.7,1,2.5,2.5c-0.2,1.2-1.1,1.9-2.6,1.9C77.8,84,73.9,84,70,84L70,84z"/>
	<path class="st2" d="M93.1,81.8c0,1.2-0.9,2.2-2.1,2.2c-1.2,0-2.2-0.9-2.2-2.1c0,0,0-0.1,0-0.1c0-1.2,1-2.1,2.2-2.1
		C92.1,79.7,93,80.6,93.1,81.8z"/>
	<path class="st2" d="M108,162.2h5.7V176h-13l-0.1-0.3c0.6-0.4,1.2-0.7,1.9-1c1.3-0.4,2.6-0.7,3.9-1c2.1-0.5,2.5-1,2.4-3.1
		C108.5,167.8,108.2,165.1,108,162.2z"/>
	<path class="st2" d="M164,79.6c-1.6,0-2.4-0.7-2.4-2.2c0-1.6,0.7-2.3,2.4-2.5V79.6z"/>
	<path class="st2" d="M113.4,47.6c0.2-1.6,0.9-2.5,2.3-2.6c1.4-0.1,2.2,0.7,2.5,2.6H113.4z"/>
</g>
</svg>
