<?xml version="1.0" encoding="utf-8"?>
<!-- Generator: Adobe Illustrator 27.0.0, SVG Export Plug-In . SVG Version: 6.00 Build 0)  -->
<svg version="1.1" id="Ebene_1" xmlns="http://www.w3.org/2000/svg" xmlns:xlink="http://www.w3.org/1999/xlink" x="0px" y="0px"
	 viewBox="0 0 233.2 233.6" style="enable-background:new 0 0 233.2 233.6;" xml:space="preserve">
<style type="text/css">
	.st0{fill:#595959;}
	.st1{opacity:0.857;}
	.st2{fill:#FFFFFF;}
</style>
<circle class="st0" cx="115.9" cy="116.4" r="115"/>
<g class="st1">
	<path class="st2" d="M43,167.4c0.8-2.9,2.9-4.7,5.4-6.3c5.2-3.3,10.4-6.6,15.3-10.2c4.6-3.4,8.9-7.3,13.3-11
		c6.3-5.2,12.5-10.4,18.9-15.4c3.6-2.8,7.8-4.8,11-8.1c0.8-0.9,2.2-0.9,3-0.1c0.1,0.1,0.1,0.1,0.2,0.2c0.9,0.9,0.9,2.3,0,3.2
		c0,0-0.1,0.1-0.2,0.1c-1.8,1.6-3.7,3-5.4,4.6c-0.6,0.5-1,1.1-1.2,1.8c-0.8,3.4-0.4,6.9,1,10c1.1,2.5,3.1,4.4,5.7,5.3
		c3.7,1.4,7.6,2,11.6,2c7.6,0.2,15.2,0.6,22.8,1c2.1,0.1,2.7,1,2.5,3.1c-0.3,3.3-0.7,6.5-1.1,10c2.4,0,4.7,0,7,0
		c0.2,0,0.6-0.6,0.7-0.9c0.9-4.4,1.8-8.7,2.7-13.1c0.8-3.8-1.4-7.5-5-8.6c-5.2-1.9-10.6-3.4-16.1-4.3c-2.2-0.3-4.4-1-6.6-1.4
		c-4-0.7-8-1.4-12.1-2c-1.7-0.3-2.7-1.2-2.5-2.6s1.4-2.1,3.1-1.9c1.4,0.1,2.8,0.3,4.2,0.6c2,0.5,4,0,5.6-1.2c3.3-2.2,6.7-4.2,10-6.4
		c4.1-2.8,7.5-6.5,9.8-10.9c1.4-2.1,1.5-4.7,0.3-6.9c-0.6,0.8-1.2,1.6-1.9,2.3c-1.3,1.3-2.6,1.4-3.6,0.3s-0.8-2.3,0.5-3.6
		c13.6-13.6,27.1-27.1,40.7-40.7c0.4-0.4,0.8-0.8,1.2-1.2c1.2-1.4,1.1-3.5-0.2-4.8c-1.3-1.4-3.4-1.6-4.9-0.4
		c-0.5,0.4-1.1,0.7-1.7,0.9c-1,0.2-2-0.3-2.3-1.2c-0.5-0.9-0.3-2.1,0.6-2.7c2-2.1,5-2.8,7.8-2c2.9,0.7,5.2,2.9,5.9,5.8
		c0.8,2.7,0.1,5.6-1.8,7.7c-0.5,0.6-1.1,1.1-1.6,1.6C174.3,71,163,82.2,151.8,93.5c-0.8,0.6-1,1.6-0.5,2.4c1.5,3.2,1.5,6.9-0.2,10
		c-2.4,4.9-5.9,9.2-10.3,12.4c-3,2.2-6.2,4.1-9.3,6.1c-0.2,0.1-0.4,0.3-0.8,0.6c3.6,0.7,7.1,1.2,10.4,2.1c4.3,1.1,8.5,2.4,12.6,4
		c5.4,2.1,8.1,7.8,6.9,13.7c-2,9.8-4,19.5-6.1,29.3c0,0.2-0.1,0.4-0.1,0.7c1.4,0.4,2.7,0.8,4.1,1.1c3.5,0.6,6.4,3.1,7.6,6.4
		c0.3,0.4,0.8,0.7,1.4,0.7c6.1,0,12.2,0,18.3,0c2.3,0,3.4,0.7,3.4,2.3s-1.1,2.3-3.4,2.3c-46.5,0-93,0-139.5,0
		c-1.3,0.1-2.5-0.4-3.3-1.5v-1.7c1.2-2,3.3-1.3,5.1-1.5c-0.5-1.3-1-2.3-1.5-3.4c-1.2-3-2.4-6.1-3.6-9.1L43,167.4z M142.2,148.9
		c-0.4-0.1-0.7-0.1-1-0.1c-6.9-0.3-13.8-0.4-20.7-0.8c-3.1-0.2-6.2-0.8-9.3-1.2c-0.6-0.1-1.2-0.1-1.8,0.1c-7.4,3.3-14.8,6.7-22.2,10
		c-9.1,3.9-17.8,8.7-26,14.2c-0.4,0.3-1,0.8-1,1.2c0.6,3.6,1.2,7.3,1.8,10.8h76.6c-1.2-2.5-0.7-4.8,0-7.2c0.2-0.7,0.4-1.4,0.4-2.1
		c0.7-5.5,1.3-11,2-16.6C141.6,154.4,141.9,151.7,142.2,148.9z M71,159.4l33.8-15.5c-4.9-4.1-6.5-9.4-6.5-15.6
		c-0.8,0.6-1.3,0.9-1.8,1.4c-3.2,2.6-6.3,5.2-9.5,7.8c-5.9,4.9-11.7,9.8-17.6,14.8c-0.4,0.4-0.7,0.9-0.6,1.4
		C69.5,155.6,70.3,157.5,71,159.4z M67.1,161.9l-2.4-6.1c-5.3,3.5-10.4,6.9-15.5,10.4c-1.3,0.7-1.9,2.2-1.4,3.6
		c1.2,3.4,2.5,6.8,3.9,10.1c1,2.2,3.4,3.5,5.8,3c-0.6-3.7-1.2-7.5-2-11.2c-0.4-1.4,0.3-2.8,1.6-3.4C60.4,166.2,63.7,164,67.1,161.9
		L67.1,161.9z M161.1,183.1l0.3-0.6c-1-0.7-2.2-1.4-3.3-1.9c-2.1-0.7-4.3-1.1-6.5-1.7c-1.9-0.5-2.4-1.3-2.1-3.2
		c0.3-1.6,0.7-3.3,1-4.9c0.6-2.8,1.1-5.6,1.7-8.5h-6.7c-1,5.7-1.9,11.3-2.9,16.9c-0.3,1.8,0.9,3.5,2.7,3.8c0.2,0,0.3,0,0.5,0
		c1.8,0.1,3.5,0,5.3,0L161.1,183.1z"/>
	<path class="st2" d="M130.5,51.1c6-2.5,11.6-2.1,16.6,2c5.1,4.1,5.7,9.9,5.2,16.3c0.4-0.3,0.7-0.5,1.1-0.8c3-3,5.9-5.9,8.9-8.9
		c3.3-3.2,5.2-7.5,5.4-12.1c0-0.3,0-0.7,0.1-1c0.1-1.3,1.1-2.2,2.4-2.2c0,0,0,0,0,0c1.2,0.1,2.2,1.1,2.1,2.3c0,0,0,0,0,0.1
		c0,3-0.6,5.9-1.7,8.6c-1.2,2.8-2.9,5.4-5.1,7.5c-9.6,9.6-19.1,19.1-28.7,28.7c-1.3,1.3-2.6,1.5-3.6,0.6c-0.9-0.8-1-2.2-0.2-3.2
		c0.1-0.1,0.1-0.2,0.2-0.2c1-1,2.1-2,3.5-3.2l-5.1-2.7c-0.8,2.4-1.4,4.8-2.3,7c-2.2,4.9-4.6,9.8-6.9,14.7c-0.4,1.1-1.5,1.7-2.6,1.3
		c0,0,0,0-0.1,0c-0.8-0.4-1.4-1-1.7-1.9c0-0.7,0.2-1.5,0.6-2.1c2.9-4.9,5.3-10.1,7-15.5c0.6-1.9,1.2-3.9,1.7-5.9
		c0.1-0.5,0-1.1-0.3-1.5c-2.7-3.2-4.3-7.1-4.7-11.2c-0.6-0.1-1.2-0.2-1.8-0.3c-4.3-0.6-7.3-4.6-6.7-8.9c0.1-0.5,0.2-1,0.3-1.4
		c0.4-1.4,1-2.8,1.5-4.2c0.9-3,3.4-5.1,6.5-5.5c3-0.5,6,0.7,7.8,3.2L130.5,51.1z M129.3,74.1c0.3-0.8,0.6-1.3,0.8-1.9
		c0.8-1.9,1.9-2.6,3.3-2c1.4,0.6,1.7,1.8,0.9,3.8l-1.7,4.1c1.6,0.8,3.2,1.6,4.7,2.3c2,1,3.8,1,5.2-1.1c0.2-0.3,0.5-0.6,0.8-0.8
		c1.5-1.5,3.5-2.7,4.2-4.5c0.8-1.8,0.2-4.2,0.3-6.3c0-1.5,0-3,0-4.7l-1.2,0.9c-2.9,2.4-6.6,3.7-10.4,3.7c-1.1,0.1-2.1-0.7-2.2-1.8
		c0,0,0-0.1,0-0.1c-0.2-1.1,0.5-2.2,1.6-2.4c0,0,0.1,0,0.1,0c0.5-0.1,1-0.2,1.6-0.2c3.4-0.2,6.4-2,8.4-4.7
		c-3.2-4.2-8.9-5.4-13.5-2.8c-0.4,0.3-0.7,0.7-0.8,1.2c-1.1,3.1-1.6,6.5-4.2,8.9c-0.1,0.1-0.2,0.3-0.2,0.5
		C126.9,68.9,127.7,71.7,129.3,74.1L129.3,74.1z M127.2,55.2c-0.2-1.6-1.3-3-2.9-3.4c-1.7-0.4-3.4,0.4-4.1,2
		c-0.6,1.5-1.2,3.1-1.6,4.7c-0.5,1.5,0.2,3.1,1.6,3.9c1.5,0.8,3.6,0.6,4.3-0.8C125.6,59.5,126.5,57.4,127.2,55.2L127.2,55.2z"/>
	<path class="st2" d="M117.3,110.8c0,1.4-1.1,2.6-2.5,2.7c-1.2,0-2.3-0.9-2.3-2.2c0,0,0,0,0,0c0.1-1.4,1.2-2.6,2.6-2.7
		C116.2,108.5,117.2,109.5,117.3,110.8C117.3,110.7,117.3,110.7,117.3,110.8z"/>
	<path class="st2" d="M127.2,55.2c-0.8,2.2-1.7,4.3-2.7,6.4c-0.8,1.4-2.9,1.6-4.3,0.8c-1.4-0.7-2.1-2.3-1.6-3.9
		c0.5-1.6,1-3.2,1.6-4.7c0.7-1.6,2.4-2.5,4.1-2C125.9,52.3,127,53.6,127.2,55.2z"/>
</g>
</svg>
