<?xml version="1.0" encoding="utf-8"?>
<!-- Generator: Adobe Illustrator 27.0.0, SVG Export Plug-In . SVG Version: 6.00 Build 0)  -->
<svg version="1.1" id="Ebene_1" xmlns="http://www.w3.org/2000/svg" xmlns:xlink="http://www.w3.org/1999/xlink" x="0px" y="0px"
	 viewBox="0 0 249.5 249.5" style="enable-background:new 0 0 249.5 249.5;" xml:space="preserve">
<style type="text/css">
	.st0{fill:#595959;}
	.st1{opacity:0.75;}
	.st2{fill:#FFFFFF;}
</style>
<circle class="st0" cx="125.1" cy="124.5" r="122.4"/>
<g class="st1">
	<path class="st2" d="M43.6,202.4c0.8-1.2,2.2-1.8,3.7-1.6c7.2,0.1,14.4,0,21.5,0h1.9c-1.2-3.2-2.4-6.2-3.6-9.2
		c-1.8-4.7-0.7-8,3.4-10.8c5.1-3.4,10.3-6.6,15.2-10.2c5-3.7,9.6-8,14.4-11.9c6.1-4.9,12.3-9.8,18.4-14.7c0.4-0.5,0.7-1.1,0.7-1.7
		c-0.1-2.3-0.4-4.6-0.6-6.9c-0.1-1.9,0.8-3.1,2.3-3.1c1.4-0.1,2.5,1,2.7,2.7c0.3,2.5,0.5,4.9,0.7,7.6c2.7,0.3,5.3,0.7,8,1
		c1.4,0,2.5,1.2,2.5,2.6c0,0,0,0,0,0c0,1.2-0.9,2.3-2.1,2.4c-0.5,0.1-0.9,0.1-1.4,0c-2-0.2-4-0.5-6-0.8c-0.5-0.1-1-0.1-1.5-0.1
		c-2,5.6,1.1,12.3,6.5,14.3c3,1.1,6.1,1.6,9.3,1.7c7.3,0.2,14.7,0.6,22,0.9c2.6,0.1,3.3,1.1,3.1,3.7c-0.3,2.8-0.6,5.6-0.9,8.6h6.2
		c0.6-2.9,1.3-6,1.9-9c0.3-1.3,0.5-2.6,0.8-3.9c0.7-3.2-1.2-6.5-4.3-7.5c-5.7-2.1-11.6-3.6-17.6-4.6c-2.4-0.4-4.8-1.1-7.3-1.6
		c-1.3-0.2-2.3-1.1-2.8-2.3c-2-4-1.7-8.2-0.6-12.4c0.8-3,1.8-6,2.8-8.9c1-2.8,0.6-6-1.2-8.4c-2.1-3.3-5.1-5.8-8.1-8.2
		c-0.9-0.7-1.9-1.4-2.8-2.1c-0.9-0.6-1.6-1.3-2.9-0.6c-1.2,0.6-2.7-0.5-2.9-1.9c-0.1-0.7-0.2-1.4-0.1-2c0-16.7,0-33.5,0-50.2
		c0-0.7,0-1.4-0.1-2.1c-0.2-1.3-1.3-2.3-2.7-2.3c-1.3-0.1-2.5,0.9-2.7,2.2c-0.1,0.3-0.1,0.6-0.1,0.9c-0.2,1.3-1.4,2.2-2.7,2.2
		c-1.3-0.1-2.3-1.2-2.3-2.6c-0.2-3.4,2.6-6.9,6.3-7.7c3.8-0.8,7.6,1.5,8.9,5.2c0.3,1.1,0.5,2.3,0.5,3.4c0,5.3,0,10.7,0,16
		c0,1,0.2,1.4,1.3,1.6c6.7,1,11.8,6.7,11.9,13.5c0.1,4.1,0.1,8.1,0,12.2c-0.1,4.5-2.5,7.2-7.8,9.1c0.7,0.6,1.3,1,1.9,1.5
		c2.6,2.6,5.5,5,7.8,7.8c3.6,4.2,4.3,9.1,2.5,14.4c-1.1,3.4-2,7-3,10.5c-0.1,0.4-0.1,0.7-0.1,1.1c-0.3,4.4,0.1,5,4.3,5.9
		c7,1.6,14.1,2.7,20.8,5.3c6.2,2.4,9.3,7.8,8,14.3c-1.8,8.8-3.7,17.7-5.5,26.5c-0.1,0.3-0.1,0.6-0.1,1.2c4.7,0.9,9.3,2,10.9,7.5
		h11.6c2.6,0,5.3,0,7.9,0c1.5,0,2.8,0.2,3.4,1.7c0.6,1.5-0.4,2.4-1.4,3.3H43.6V202.4z M159.4,169.4c-0.8-0.1-1.3-0.2-1.8-0.2
		c-5.9-0.2-11.7-0.3-17.6-0.7c-3.1-0.2-6.1-0.8-9.2-1.1c-0.7-0.1-1.3,0-1.9,0.2c-6,2.6-11.9,5.4-17.9,8c-9.1,4.1-18.1,8.4-26.3,14
		c-1,0.7-1.6,1.2-1.2,2.6c0.6,2.2,1,4.5,1.2,6.8c0.1,1.5,0.8,1.7,2.1,1.7c22.5,0,45.1,0,67.6,0h1.4c-0.1-1.4-0.1-2.9,0-4.3
		c0.6-4.3,1.4-8.5,2-12.8C158.4,179,158.9,174.2,159.4,169.4L159.4,169.4z M93.2,178.3l30.8-14.2c-4.1-3.6-5.6-8.3-5.8-13.5
		c-0.3,0-0.3,0-0.4,0.1c-8.7,7.2-17.4,14.5-26.2,21.8c-0.3,0.3-0.4,0.8-0.3,1.2C91.9,175.2,92.6,176.8,93.2,178.3z M79.7,200.8
		c0-0.5,0-0.9-0.1-1.3c-0.5-3-0.9-5.9-1.6-8.9c-0.5-1.5,0.3-3.1,1.7-3.8c2.7-1.6,5.4-3.4,8-5.1c0.4-0.2,0.8-0.9,0.7-1.3
		c-0.4-1.4-1.1-2.8-1.7-4.4c-4.9,3.3-9.6,6.4-14.3,9.6c-1.1,0.7-1.5,2.1-0.9,3.2c1.1,3,2.2,5.9,3.5,8.8
		C75.8,199.5,77.7,200.7,79.7,200.8L79.7,200.8z M163.3,181.9c-0.1,0.1-0.1,0.2-0.2,0.3c-0.8,5-1.5,10-2.3,15
		c-0.4,1.5,0.5,3,1.9,3.4c0.3,0.1,0.7,0.1,1,0.1c4,0,7.9,0,11.9,0c0.4,0,0.9-0.1,1.3-0.1l0.1-0.4c-1-0.5-2-0.9-3.1-1.3
		c-1.8-0.5-3.7-0.9-5.5-1.4c-1.4-0.2-2.4-1.5-2.2-2.9c0-0.1,0-0.2,0.1-0.4c0.2-1,0.4-2.1,0.6-3.1l1.9-9.2H163.3z M138.1,84.1
		c-2.4,1-4.6,2.1-6.9,2.9c-1,0.3-1.4,0.7-1.3,1.7c0.1,2.6,0,5.2,0,7.8c0,3.1,0,3.1,3.1,3.2c0.4,0,0.8,0,1.3,0c2-0.1,3.7-1.7,3.8-3.8
		C138.2,91.9,138.1,88,138.1,84.1L138.1,84.1z M130.1,74.9v7.1c2.4-0.5,4.6-1.8,6-3.8C134.6,76.4,132.4,75.2,130.1,74.9L130.1,74.9z
		"/>
	<path class="st2" d="M114.2,87.5c-1.1-0.3-2-0.5-2.9-0.8c-3.7-1.3-5.8-5.2-4.8-9c0.5-1.9,1.2-3.8,2-5.7c1.1-2.3,3.2-3.9,5.6-4.4
		c0.6-4.2-0.2-7.8-3.5-10.8c-2-1.8-2.2-3.3-0.8-4.6c1.3-1.2,2.5-0.8,4.5,1c3.5,3.3,5.4,7.9,5.2,12.7c-0.2,12.6,0,25.1-0.1,37.7
		c-0.1,1.2,0.3,2.4,1.1,3.3c0.4,0.5,0.7,1.1,0.7,1.7c0.2,1.8,0.4,3.7,0.5,5.5c0.2,1.4-0.8,2.6-2.2,2.8s-2.6-0.8-2.8-2.2
		c-0.1-0.7-0.2-1.4-0.2-2c-0.1-1.5-0.5-3-1.2-4.3c-0.7-1.3-1-2.6-1-4.1c-0.1-5.1,0-10.1,0-15.2L114.2,87.5z M114.1,82.1v-9.1
		c-0.4,0.3-0.7,0.4-0.7,0.6c-0.8,1.9-1.5,3.8-2,5.8C111.1,80.9,112.3,82,114.1,82.1L114.1,82.1z"/>
	<path class="st2" d="M120.2,127.3c-1.4,0-2.5-1.2-2.5-2.6s1.2-2.5,2.6-2.5c1.4,0,2.5,1.2,2.4,2.6
		C122.6,126.2,121.5,127.3,120.2,127.3z"/>
	<path class="st2" d="M114.1,82.1c-1.9-0.2-3.1-1.2-2.7-2.7c0.5-2,1.2-3.9,2-5.8c0.1-0.2,0.4-0.3,0.7-0.6L114.1,82.1z"/>
</g>
</svg>
