<?xml version="1.0" encoding="UTF-8"?>
<svg id="Ebene_1" data-name="Ebene 1" xmlns="http://www.w3.org/2000/svg" viewBox="0 0 58.8 50.26">
  <defs>
    <style>
      .cls-1 {
        fill: #707070;
        stroke: #d5874c;
        stroke-miterlimit: 10;
      }
    </style>
  </defs>
  <path class="cls-1" d="M12.54,21.43c-3.27,.38-6.82-1.41-8.76-4.26-1.56-2.29-1.67-4.64-1.67-5.66C2.11,4.72,6.46,.5,12.54,.5c8.13,0,12.61,6.46,12.61,17.73,0,13.95-6.72,24.38-19.97,31.36L.7,41.33c1.85-.81,8.08-3.81,11.36-10.9,1.74-3.75,1.98-7.22,1.95-9.33-.33,.11-.84,.25-1.47,.32Zm33.15,0c-3.27,.38-6.82-1.41-8.76-4.26-1.56-2.29-1.67-4.64-1.67-5.66,0-6.78,4.35-11.01,10.43-11.01,8.13,0,12.61,6.46,12.61,17.73,0,13.95-6.72,24.38-19.97,31.36l-4.48-8.26c1.85-.81,8.08-3.81,11.36-10.89,1.74-3.76,1.98-7.22,1.95-9.33-.33,.11-.84,.25-1.47,.32Z"/>
</svg>